<svg width="183" height="25" viewBox="0 0 183 25" fill="none" xmlns="http://www.w3.org/2000/svg">
<rect width="182.506" height="24.1111" rx="12.0555" fill="#080411"/>
<path d="M146.487 12.2575H144.744C144.513 12.2575 144.292 12.1682 144.128 12.0092C143.965 11.8502 143.873 11.6345 143.873 11.4096C143.873 11.1848 143.965 10.9691 144.128 10.8101C144.292 10.6511 144.513 10.5618 144.744 10.5618H146.487C146.718 10.5618 146.94 10.6511 147.103 10.8101C147.266 10.9691 147.358 11.1848 147.358 11.4096C147.358 11.6345 147.266 11.8502 147.103 12.0092C146.94 12.1682 146.718 12.2575 146.487 12.2575ZM141.259 10.5618H140.969V10.2791C140.969 10.0543 140.877 9.8386 140.714 9.67959C140.55 9.52059 140.329 9.43126 140.098 9.43126C139.867 9.43126 139.645 9.52059 139.482 9.67959C139.318 9.8386 139.226 10.0543 139.226 10.2791V10.5618H138.936C138.705 10.5618 138.483 10.6511 138.32 10.8101C138.157 10.9691 138.065 11.1848 138.065 11.4096C138.065 11.6345 138.157 11.8502 138.32 12.0092C138.483 12.1682 138.705 12.2575 138.936 12.2575H139.226V12.5402C139.226 12.765 139.318 12.9807 139.482 13.1397C139.645 13.2987 139.867 13.388 140.098 13.388C140.329 13.388 140.55 13.2987 140.714 13.1397C140.877 12.9807 140.969 12.765 140.969 12.5402V12.2575H141.259C141.49 12.2575 141.712 12.1682 141.875 12.0092C142.039 11.8502 142.131 11.6345 142.131 11.4096C142.131 11.1848 142.039 10.9691 141.875 10.8101C141.712 10.6511 141.49 10.5618 141.259 10.5618ZM151.479 18.4004C151.236 18.738 150.92 19.0196 150.553 19.2256C150.186 19.4317 149.777 19.5571 149.355 19.5931C148.933 19.6291 148.508 19.5749 148.11 19.4341C147.712 19.2934 147.35 19.0696 147.05 18.7785C147.037 18.766 147.024 18.7528 147.012 18.7389L144.212 15.6491H141.792L138.995 18.7389C138.983 18.7523 138.969 18.7657 138.956 18.7785C138.52 19.2031 137.955 19.4811 137.345 19.5723C136.734 19.6634 136.11 19.5629 135.563 19.2854C135.015 19.0078 134.573 18.5676 134.299 18.0287C134.026 17.4898 133.937 16.8803 134.044 16.2885C134.044 16.2838 134.044 16.2791 134.044 16.2744L135.233 10.335C135.423 9.29025 135.984 8.34378 136.819 7.66169C137.654 6.97961 138.709 6.60548 139.799 6.60498H146.196C147.283 6.60649 148.335 6.97813 149.17 7.65544C150.004 8.33275 150.569 9.27299 150.765 10.3131C150.766 10.3175 150.766 10.322 150.765 10.3265L151.953 16.2737C151.954 16.2784 151.954 16.2831 151.953 16.2878C152.022 16.653 152.015 17.0277 151.934 17.3903C151.852 17.7529 151.698 18.0963 151.479 18.4004ZM146.196 13.9533C146.967 13.9533 147.705 13.6555 148.25 13.1255C148.795 12.5955 149.101 11.8766 149.101 11.127C149.101 10.3774 148.795 9.65857 148.25 9.12854C147.705 8.59851 146.967 8.30075 146.196 8.30075H139.799C139.118 8.3014 138.458 8.53599 137.937 8.96325C137.415 9.39051 137.065 9.98306 136.948 10.6367C136.948 10.6416 136.948 10.6466 136.948 10.6515L135.762 16.5867C135.71 16.8811 135.781 17.1835 135.958 17.4276C136.134 17.6717 136.403 17.8378 136.706 17.8896C136.886 17.9201 137.07 17.9091 137.245 17.8575C137.42 17.8058 137.58 17.7149 137.712 17.5921L140.744 14.2409C140.826 14.1506 140.926 14.0782 141.039 14.0286C141.151 13.979 141.274 13.9534 141.397 13.9533H146.196ZM150.245 16.5895L149.737 14.0494C149.337 14.5094 148.847 14.8868 148.295 15.1594C147.743 15.4319 147.14 15.5941 146.522 15.6363L148.295 17.5949C148.471 17.7596 148.696 17.8659 148.938 17.8988C149.18 17.9317 149.427 17.8894 149.643 17.7781C149.859 17.6667 150.033 17.4919 150.141 17.2785C150.249 17.0651 150.286 16.824 150.245 16.5895Z" fill="#6419F0"/>
<path d="M34.2532 6.41847C34.1759 6.47068 34.1124 6.54086 34.0682 6.623C34.024 6.70515 34.0003 6.7968 33.9993 6.89009C33.9982 6.98339 34.0198 7.07555 34.0622 7.15866C34.1046 7.24178 34.1665 7.31337 34.2426 7.36731L37.4697 9.65235L37.4671 10.9231L36.3074 11.4424L32.9076 9.42335C32.8274 9.37573 32.7368 9.34828 32.6436 9.34336C32.5505 9.33844 32.4575 9.35618 32.3727 9.39508C32.2879 9.43399 32.2138 9.49287 32.1568 9.5667C32.0997 9.64053 32.0615 9.72709 32.0452 9.81897C31.8972 10.6562 31.9572 11.5171 32.2197 12.3258C32.4822 13.1345 32.9393 13.8664 33.5508 14.4571C34.1623 15.0478 34.9095 15.4793 35.7268 15.7137C36.544 15.948 37.4063 15.978 38.2378 15.8011C38.9403 15.6528 39.6045 15.361 40.1889 14.9441L44.7632 18.4106C44.774 18.4193 44.7859 18.4271 44.7972 18.435C45.3105 18.7684 45.9351 18.8842 46.5338 18.757C46.8302 18.694 47.1113 18.5732 47.361 18.4015C47.6107 18.2299 47.8242 18.0107 47.9892 17.7565C48.1543 17.5024 48.2676 17.2182 48.3229 16.9202C48.3781 16.6222 48.3741 16.3163 48.311 16.0198C48.1838 15.4211 47.8239 14.8975 47.3107 14.5641C47.2996 14.5569 47.2869 14.5493 47.2752 14.5429L42.247 11.7745C42.4221 10.929 42.3835 10.0531 42.1348 9.22626C41.8861 8.39939 41.4352 7.64759 40.8228 7.03892C40.2104 6.43026 39.4558 5.98395 38.6275 5.7404C37.7992 5.49686 36.9232 5.46376 36.0789 5.64411C35.426 5.78174 34.806 6.04471 34.2532 6.41847ZM41.1079 9.88313C41.2489 10.5512 41.2187 11.2442 41.02 11.8974C40.9815 12.024 40.9877 12.16 41.0375 12.2825C41.0873 12.4051 41.1777 12.5068 41.2936 12.5706L46.6976 15.543C46.9456 15.7133 47.1173 15.9737 47.1761 16.2688C47.2349 16.5639 47.1761 16.8703 47.0122 17.1226C46.8484 17.3749 46.5925 17.5533 46.299 17.6196C46.0056 17.6859 45.6978 17.635 45.4414 17.4776L40.5298 13.7525C40.4243 13.6725 40.2944 13.6312 40.1621 13.6355C40.0297 13.6399 39.9029 13.6897 39.8029 13.7765C39.2289 14.2745 38.5259 14.6004 37.775 14.7166C37.024 14.8329 36.2554 14.7348 35.5577 14.4337C34.8599 14.1326 34.2613 13.6407 33.8306 13.0146C33.3998 12.3884 33.1546 11.6534 33.1229 10.894L35.9752 12.5879C36.0546 12.635 36.1442 12.6623 36.2364 12.6676C36.3286 12.6729 36.4207 12.656 36.505 12.6183L38.2771 11.8243C38.3785 11.7789 38.4645 11.7052 38.525 11.6121C38.5855 11.5189 38.6178 11.4103 38.6181 11.2992L38.6222 9.35577C38.6224 9.26341 38.6004 9.17236 38.558 9.09028C38.5157 9.00819 38.4543 8.93747 38.3789 8.88406L35.6716 6.96699C36.2177 6.75154 36.8042 6.65766 37.3903 6.69187C37.9764 6.72609 38.548 6.88758 39.0654 7.16511C39.5828 7.44264 40.0335 7.82956 40.3862 8.29895C40.739 8.76833 40.9852 9.30893 41.1079 9.88313Z" fill="#FFC23C"/>
<path d="M167.917 6.1654H164.667C164.379 6.1654 164.104 6.2834 163.901 6.49343C163.697 6.70347 163.583 6.98834 163.583 7.28537V18.485C163.583 18.782 163.697 19.0669 163.901 19.2769C164.104 19.487 164.379 19.605 164.667 19.605H167.917C168.204 19.605 168.48 19.487 168.683 19.2769C168.886 19.0669 169 18.782 169 18.485V7.28537C169 6.98834 168.886 6.70347 168.683 6.49343C168.48 6.2834 168.204 6.1654 167.917 6.1654ZM167.917 18.485H164.667V16.2451H166.292C166.435 16.2451 166.573 16.1861 166.675 16.0811C166.776 15.9761 166.833 15.8336 166.833 15.6851C166.833 15.5366 166.776 15.3942 166.675 15.2891C166.573 15.1841 166.435 15.1251 166.292 15.1251H164.667V13.4452H166.292C166.435 13.4452 166.573 13.3862 166.675 13.2812C166.776 13.1761 166.833 13.0337 166.833 12.8852C166.833 12.7367 166.776 12.5942 166.675 12.4892C166.573 12.3842 166.435 12.3252 166.292 12.3252H164.667V10.6453H166.292C166.435 10.6453 166.573 10.5863 166.675 10.4812C166.776 10.3762 166.833 10.2338 166.833 10.0853C166.833 9.93676 166.776 9.79433 166.675 9.68931C166.573 9.5843 166.435 9.5253 166.292 9.5253H164.667V7.28537H167.917V18.485ZM159.092 5.76922C159.041 5.71715 158.982 5.67585 158.916 5.64767C158.85 5.61949 158.78 5.60498 158.708 5.60498C158.637 5.60498 158.567 5.61949 158.501 5.64767C158.435 5.67585 158.375 5.71715 158.325 5.76922L156.158 8.00915C156.108 8.06119 156.068 8.12296 156.041 8.19094C156.014 8.25892 156 8.33177 156 8.40533V18.485C156 18.782 156.114 19.0669 156.317 19.2769C156.52 19.487 156.796 19.605 157.083 19.605H160.333C160.621 19.605 160.896 19.487 161.099 19.2769C161.303 19.0669 161.417 18.782 161.417 18.485V8.40533C161.417 8.33177 161.403 8.25892 161.376 8.19094C161.348 8.12296 161.309 8.06119 161.258 8.00915L159.092 5.76922ZM157.083 16.2451V9.5253H158.167V16.2451H157.083ZM159.25 9.5253H160.333V16.2451H159.25V9.5253ZM158.708 6.95708L160.109 8.40533H157.307L158.708 6.95708ZM157.083 18.485V17.3651H160.333V18.485H157.083Z" fill="#FFC23C"/>
<path d="M24.6 8.52165C24.6 8.67636 24.5368 8.82473 24.4243 8.93413C24.3117 9.04352 24.1591 9.10498 24 9.10498H21.6C21.4409 9.10498 21.2883 9.04352 21.1757 8.93413C21.0632 8.82473 21 8.67636 21 8.52165C21 8.36694 21.0632 8.21856 21.1757 8.10917C21.2883 7.99977 21.4409 7.93831 21.6 7.93831H24C24.1591 7.93831 24.3117 7.99977 24.4243 8.10917C24.5368 8.21856 24.6 8.36694 24.6 8.52165ZM24 10.2716H21.6C21.4409 10.2716 21.2883 10.3331 21.1757 10.4425C21.0632 10.5519 21 10.7003 21 10.855C21 11.0097 21.0632 11.1581 21.1757 11.2675C21.2883 11.3769 21.4409 11.4383 21.6 11.4383H24C24.1591 11.4383 24.3117 11.3769 24.4243 11.2675C24.5368 11.1581 24.6 11.0097 24.6 10.855C24.6 10.7003 24.5368 10.5519 24.4243 10.4425C24.3117 10.3331 24.1591 10.2716 24 10.2716ZM27 6.77165V18.4383C27 18.7477 26.8736 19.0445 26.6485 19.2633C26.4235 19.4821 26.1183 19.605 25.8 19.605H19.8C19.4817 19.605 19.1765 19.4821 18.9515 19.2633C18.7264 19.0445 18.6 18.7477 18.6 18.4383V17.2716H15.6V18.4383H16.8C16.9591 18.4383 17.1117 18.4998 17.2243 18.6092C17.3368 18.7186 17.4 18.8669 17.4 19.0216C17.4 19.1764 17.3368 19.3247 17.2243 19.4341C17.1117 19.5435 16.9591 19.605 16.8 19.605H13.2C13.0409 19.605 12.8883 19.5435 12.7757 19.4341C12.6632 19.3247 12.6 19.1764 12.6 19.0216C12.6 18.8669 12.6632 18.7186 12.7757 18.6092C12.8883 18.4998 13.0409 18.4383 13.2 18.4383H14.4V17.2716H10.8C10.3226 17.2716 9.86477 17.0873 9.52721 16.7591C9.18964 16.4309 9 15.9858 9 15.5216V10.2716C9 9.80752 9.18964 9.3624 9.52721 9.03421C9.86477 8.70602 10.3226 8.52165 10.8 8.52165H18.6V6.77165C18.6 6.46223 18.7264 6.16548 18.9515 5.94669C19.1765 5.7279 19.4817 5.60498 19.8 5.60498H25.8C26.1183 5.60498 26.4235 5.7279 26.6485 5.94669C26.8736 6.16548 27 6.46223 27 6.77165ZM18.6 16.105V9.68831H10.8C10.6409 9.68831 10.4883 9.74977 10.3757 9.85917C10.2632 9.96856 10.2 10.1169 10.2 10.2716V15.5216C10.2 15.6764 10.2632 15.8247 10.3757 15.9341C10.4883 16.0435 10.6409 16.105 10.8 16.105H18.6ZM25.8 18.4383V6.77165H19.8V18.4383H25.8ZM22.8 15.5216C22.622 15.5216 22.448 15.573 22.3 15.6691C22.152 15.7653 22.0366 15.9019 21.9685 16.0618C21.9004 16.2217 21.8826 16.3976 21.9173 16.5674C21.952 16.7371 22.0377 16.893 22.1636 17.0154C22.2895 17.1377 22.4498 17.2211 22.6244 17.2548C22.799 17.2886 22.98 17.2713 23.1444 17.205C23.3089 17.1388 23.4494 17.0267 23.5483 16.8828C23.6472 16.7389 23.7 16.5697 23.7 16.3966C23.7 16.1646 23.6052 15.942 23.4364 15.7779C23.2676 15.6138 23.0387 15.5216 22.8 15.5216Z" fill="#6419F0"/>
<path d="M64 5.60498H56C55.7348 5.60498 55.4804 5.71844 55.2929 5.9204C55.1054 6.12237 55 6.39629 55 6.6819V18.5281C55 18.8137 55.1054 19.0876 55.2929 19.2896C55.4804 19.4915 55.7348 19.605 56 19.605H64C64.2652 19.605 64.5196 19.4915 64.7071 19.2896C64.8946 19.0876 65 18.8137 65 18.5281V6.6819C65 6.39629 64.8946 6.12237 64.7071 5.9204C64.5196 5.71844 64.2652 5.60498 64 5.60498ZM64 18.5281H56V6.6819H64V18.5281ZM59.25 9.10498C59.25 8.94523 59.294 8.78908 59.3764 8.65625C59.4588 8.52343 59.5759 8.4199 59.713 8.35877C59.85 8.29764 60.0008 8.28164 60.1463 8.31281C60.2918 8.34397 60.4254 8.4209 60.5303 8.53386C60.6352 8.64681 60.7067 8.79073 60.7356 8.94741C60.7645 9.10408 60.7497 9.26648 60.6929 9.41407C60.6361 9.56166 60.54 9.6878 60.4167 9.77655C60.2933 9.8653 60.1483 9.91267 60 9.91267C59.8011 9.91267 59.6103 9.82758 59.4697 9.67611C59.329 9.52463 59.25 9.31919 59.25 9.10498ZM60 16.9127C60.4945 16.9127 60.9778 16.7548 61.3889 16.4589C61.8 16.1631 62.1205 15.7426 62.3097 15.2507C62.4989 14.7587 62.5484 14.2174 62.452 13.6951C62.3555 13.1729 62.1174 12.6931 61.7678 12.3166C61.4181 11.9401 60.9727 11.6837 60.4877 11.5798C60.0028 11.4759 59.5001 11.5292 59.0433 11.733C58.5865 11.9368 58.196 12.2819 57.9213 12.7246C57.6466 13.1673 57.5 13.6879 57.5 14.2204C57.5 14.5739 57.5647 14.924 57.6903 15.2507C57.8159 15.5773 58.0001 15.8741 58.2322 16.1241C58.7011 16.629 59.337 16.9127 60 16.9127ZM60 12.605C60.2967 12.605 60.5867 12.6997 60.8334 12.8772C61.08 13.0547 61.2723 13.307 61.3858 13.6022C61.4994 13.8974 61.5291 14.2222 61.4712 14.5355C61.4133 14.8489 61.2704 15.1367 61.0607 15.3626C60.8509 15.5885 60.5836 15.7424 60.2926 15.8047C60.0017 15.867 59.7001 15.8351 59.426 15.7128C59.1519 15.5905 58.9176 15.3835 58.7528 15.1178C58.588 14.8522 58.5 14.5399 58.5 14.2204C58.5 13.7919 58.658 13.3811 58.9393 13.0781C59.2206 12.7752 59.6022 12.605 60 12.605Z" fill="#6419F0"/>
<path d="M120.917 16.022C120.979 16.084 121.028 16.1576 121.061 16.2387C121.095 16.3197 121.112 16.4065 121.112 16.4942C121.112 16.5819 121.095 16.6687 121.061 16.7497C121.028 16.8307 120.979 16.9044 120.917 16.9664C120.855 17.0284 120.781 17.0776 120.7 17.1111C120.619 17.1447 120.532 17.1619 120.444 17.1619C120.357 17.1619 120.27 17.1447 120.189 17.1111C120.108 17.0776 120.034 17.0284 119.972 16.9664L118.639 15.6332C118.514 15.5079 118.443 15.3381 118.443 15.161C118.443 14.9839 118.514 14.8141 118.639 14.6888C118.764 14.5636 118.934 14.4932 119.111 14.4932C119.288 14.4932 119.458 14.5636 119.583 14.6888L120.917 16.022ZM122 12.2724C121.737 12.2724 121.479 12.3506 121.26 12.4971C121.04 12.6436 120.87 12.8518 120.769 13.0954C120.668 13.339 120.641 13.6071 120.693 13.8657C120.744 14.1243 120.871 14.3619 121.058 14.5483C121.244 14.7348 121.482 14.8617 121.74 14.9132C121.999 14.9646 122.267 14.9382 122.511 14.8373C122.754 14.7364 122.962 14.5655 123.109 14.3463C123.255 14.127 123.334 13.8693 123.334 13.6056C123.334 13.252 123.193 12.9129 122.943 12.6629C122.693 12.4129 122.354 12.2724 122 12.2724ZM129.805 8.96608C129.704 9.06713 129.573 9.13311 129.432 9.15431C129.291 9.17552 129.146 9.15081 129.02 9.08385L125.889 12.2169C126.034 12.548 126.134 12.8969 126.187 13.2545C126.326 14.2311 126.064 15.1071 125.45 15.722C125.201 15.9706 124.903 16.1651 124.576 16.2937C124.535 16.3141 124.5 16.3459 124.477 16.3853C124.453 16.4247 124.442 16.47 124.443 16.5159C124.414 17.383 124.101 18.139 123.539 18.7012C122.945 19.2922 122.139 19.605 121.23 19.605C121.03 19.6046 120.83 19.5901 120.632 19.5617C119.55 19.4072 118.48 18.8478 117.619 17.9868C116.758 17.1258 116.199 16.0559 116.044 14.9743C115.877 13.8217 116.186 12.789 116.908 12.0674C117.47 11.5053 118.226 11.1925 119.093 11.1614C119.139 11.1628 119.185 11.1511 119.224 11.1276C119.263 11.104 119.295 11.0697 119.316 11.0286C119.444 10.702 119.638 10.4051 119.886 10.1565C120.5 9.54158 121.377 9.27994 122.353 9.41937C122.71 9.47216 123.059 9.57229 123.389 9.71711L126.522 6.58577C126.447 6.44467 126.425 6.28116 126.46 6.12509C126.495 5.96901 126.585 5.83079 126.714 5.73565C126.842 5.64051 127.001 5.59481 127.16 5.60688C127.32 5.61895 127.47 5.688 127.583 5.80141L129.805 8.0234C129.93 8.14841 130 8.31796 130 8.49474C130 8.67153 129.93 8.84107 129.805 8.96608ZM128.055 8.16172L127.444 7.55067L126.389 8.60612L127 9.21717L128.055 8.16172ZM123.927 11.6769C123.307 11.0553 122.522 10.717 121.853 10.717C121.448 10.717 121.085 10.8398 120.828 11.0975C120.709 11.2184 120.617 11.3625 120.556 11.5208C120.44 11.8036 120.244 12.0464 119.993 12.2194C119.741 12.3924 119.444 12.488 119.138 12.4946C118.773 12.5068 118.253 12.6057 117.851 13.009C117.433 13.4267 117.26 14.0572 117.364 14.7866C117.478 15.5848 117.903 16.387 118.562 17.0452C119.22 17.7035 120.022 18.129 120.82 18.2429C121.548 18.3468 122.178 18.174 122.598 17.7563C123.001 17.3535 123.098 16.8336 123.113 16.4686C123.119 16.1631 123.214 15.8661 123.387 15.614C123.56 15.3619 123.802 15.1659 124.085 15.0499C124.243 14.9884 124.387 14.895 124.507 14.7755C125.191 14.0939 124.926 12.674 123.929 11.6769H123.927ZM125.167 11.0542L126.056 10.1615L125.445 9.55047L124.552 10.4393C124.663 10.532 124.768 10.6292 124.872 10.732C124.975 10.8348 125.072 10.9442 125.167 11.0542Z" fill="#FFC23C"/>
<path d="M84.1831 15.8789C84.1831 16.3802 84.118 16.8327 83.9878 17.2363C83.8641 17.6335 83.6981 17.985 83.4897 18.291C83.2814 18.597 83.0373 18.8574 82.7573 19.0723C82.4774 19.2871 82.1877 19.4629 81.8882 19.5996C81.5887 19.7363 81.2827 19.8372 80.9702 19.9023C80.6642 19.9674 80.3745 20 80.1011 20H70.3062V17.4609H80.1011C80.5894 17.4609 80.967 17.3177 81.2339 17.0312C81.5073 16.7448 81.644 16.3607 81.644 15.8789C81.644 15.6445 81.6082 15.4297 81.5366 15.2344C81.465 15.0391 81.3608 14.8698 81.2241 14.7266C81.0939 14.5833 80.9312 14.4727 80.7358 14.3945C80.547 14.3164 80.3354 14.2773 80.1011 14.2773H74.2612C73.8511 14.2773 73.4084 14.2057 72.9331 14.0625C72.4578 13.9128 72.0151 13.6751 71.605 13.3496C71.2013 13.0241 70.8628 12.5977 70.5894 12.0703C70.3224 11.543 70.189 10.8984 70.189 10.1367C70.189 9.375 70.3224 8.73372 70.5894 8.21289C70.8628 7.68555 71.2013 7.25911 71.605 6.93359C72.0151 6.60156 72.4578 6.36393 72.9331 6.2207C73.4084 6.07096 73.8511 5.99609 74.2612 5.99609H82.9038V8.53516H74.2612C73.7795 8.53516 73.4019 8.68164 73.1284 8.97461C72.8615 9.26758 72.728 9.65495 72.728 10.1367C72.728 10.625 72.8615 11.0124 73.1284 11.2988C73.4019 11.5788 73.7795 11.7188 74.2612 11.7188H80.1011H80.1206C80.394 11.7253 80.6838 11.7643 80.9897 11.8359C81.2957 11.901 81.5985 12.0052 81.8979 12.1484C82.2039 12.2917 82.4937 12.474 82.7671 12.6953C83.0405 12.9102 83.2814 13.1706 83.4897 13.4766C83.7046 13.7826 83.8739 14.1341 83.9976 14.5312C84.1213 14.9284 84.1831 15.3776 84.1831 15.8789ZM88.1284 18.7207C88.1284 18.8965 88.0926 19.0625 88.021 19.2188C87.9559 19.3685 87.8647 19.502 87.7476 19.6191C87.6369 19.7298 87.5034 19.8177 87.3472 19.8828C87.1974 19.9479 87.0379 19.9805 86.8687 19.9805C86.6929 19.9805 86.5269 19.9479 86.3706 19.8828C86.2209 19.8177 86.0874 19.7298 85.9702 19.6191C85.8595 19.502 85.7716 19.3685 85.7065 19.2188C85.6414 19.0625 85.6089 18.8965 85.6089 18.7207C85.6089 18.5514 85.6414 18.3919 85.7065 18.2422C85.7716 18.0859 85.8595 17.9525 85.9702 17.8418C86.0874 17.7246 86.2209 17.6335 86.3706 17.5684C86.5269 17.4967 86.6929 17.4609 86.8687 17.4609C87.0379 17.4609 87.1974 17.4967 87.3472 17.5684C87.5034 17.6335 87.6369 17.7246 87.7476 17.8418C87.8647 17.9525 87.9559 18.0859 88.021 18.2422C88.0926 18.3919 88.1284 18.5514 88.1284 18.7207ZM104.134 20H101.595V16.5625H92.6694V20H90.1304V12.998C90.1304 11.9759 90.3062 11.0352 90.6577 10.1758C91.0093 9.31641 91.4976 8.57747 92.1226 7.95898C92.7476 7.34049 93.4865 6.85872 94.3394 6.51367C95.1922 6.16862 96.1232 5.99609 97.1323 5.99609H102.855C103.031 5.99609 103.197 6.02865 103.353 6.09375C103.509 6.15885 103.646 6.25 103.763 6.36719C103.88 6.48438 103.972 6.62109 104.037 6.77734C104.102 6.93359 104.134 7.09961 104.134 7.27539V20ZM92.6694 14.0234H101.595V8.53516H97.1323C97.0542 8.53516 96.8882 8.54818 96.6343 8.57422C96.3869 8.59375 96.0972 8.64909 95.7651 8.74023C95.4396 8.83138 95.0946 8.97135 94.73 9.16016C94.3654 9.34896 94.0301 9.60938 93.7241 9.94141C93.4181 10.2734 93.1642 10.6901 92.9624 11.1914C92.7671 11.6862 92.6694 12.2884 92.6694 12.998V14.0234ZM108.929 18.7207C108.929 18.8965 108.893 19.0625 108.822 19.2188C108.757 19.3685 108.666 19.502 108.548 19.6191C108.438 19.7298 108.304 19.8177 108.148 19.8828C107.998 19.9479 107.839 19.9805 107.669 19.9805C107.494 19.9805 107.328 19.9479 107.171 19.8828C107.022 19.8177 106.888 19.7298 106.771 19.6191C106.66 19.502 106.572 19.3685 106.507 19.2188C106.442 19.0625 106.41 18.8965 106.41 18.7207C106.41 18.5514 106.442 18.3919 106.507 18.2422C106.572 18.0859 106.66 17.9525 106.771 17.8418C106.888 17.7246 107.022 17.6335 107.171 17.5684C107.328 17.4967 107.494 17.4609 107.669 17.4609C107.839 17.4609 107.998 17.4967 108.148 17.5684C108.304 17.6335 108.438 17.7246 108.548 17.8418C108.666 17.9525 108.757 18.0859 108.822 18.2422C108.893 18.3919 108.929 18.5514 108.929 18.7207Z" fill="#FEEBF8"/>
</svg>
